<svg width="156" height="24" viewBox="0 0 156 24" fill="none" xmlns="http://www.w3.org/2000/svg">
<path d="M12.464 19.416C12.464 20.664 11.944 21.584 10.904 22.176C9.864 22.784 8.304 23.088 6.224 23.088C4.224 23.088 2.784 22.824 1.904 22.296C1.04 21.768 0.608 21.008 0.608 20.016C0.608 19.344 0.784 18.824 1.136 18.456C1.488 18.088 1.984 17.816 2.624 17.64V17.352C2.272 17.176 2 16.952 1.808 16.68C1.616 16.408 1.52 16.064 1.52 15.648C1.52 15.008 1.728 14.528 2.144 14.208C2.576 13.888 3.112 13.648 3.752 13.488V13.392C2.984 13.056 2.384 12.56 1.952 11.904C1.536 11.248 1.328 10.48 1.328 9.6C1.328 8.976 1.44 8.4 1.664 7.872C1.888 7.344 2.208 6.896 2.624 6.528C3.056 6.144 3.568 5.848 4.16 5.64C4.752 5.432 5.408 5.328 6.128 5.328C7.056 5.328 7.872 5.496 8.576 5.832V5.616C8.576 5.136 8.688 4.736 8.912 4.416C9.136 4.096 9.52 3.936 10.064 3.936H12.344V5.616H9.56V6.456C10.008 6.84 10.352 7.296 10.592 7.824C10.832 8.352 10.952 8.944 10.952 9.6C10.952 10.224 10.832 10.8 10.592 11.328C10.368 11.856 10.048 12.312 9.632 12.696C9.216 13.064 8.704 13.352 8.096 13.56C7.504 13.768 6.848 13.872 6.128 13.872C5.92 13.872 5.72 13.864 5.528 13.848C5.336 13.832 5.144 13.808 4.952 13.776C4.76 13.808 4.56 13.864 4.352 13.944C4.144 14.008 3.952 14.104 3.776 14.232C3.6 14.344 3.456 14.48 3.344 14.64C3.232 14.8 3.176 14.984 3.176 15.192C3.176 15.56 3.36 15.808 3.728 15.936C4.096 16.048 4.576 16.104 5.168 16.104H7.904C9.504 16.104 10.664 16.408 11.384 17.016C12.104 17.608 12.464 18.408 12.464 19.416ZM10.664 19.512C10.664 19.016 10.464 18.616 10.064 18.312C9.664 18.024 8.968 17.88 7.976 17.88H3.68C2.848 18.216 2.432 18.776 2.432 19.56C2.432 20.104 2.648 20.568 3.08 20.952C3.512 21.352 4.232 21.552 5.24 21.552H7.112C8.232 21.552 9.104 21.376 9.728 21.024C10.352 20.688 10.664 20.184 10.664 19.512ZM6.128 12.384C7.088 12.384 7.792 12.16 8.24 11.712C8.704 11.264 8.936 10.672 8.936 9.936V9.24C8.936 8.504 8.704 7.92 8.24 7.488C7.792 7.04 7.088 6.816 6.128 6.816C5.168 6.816 4.464 7.04 4.016 7.488C3.568 7.92 3.344 8.504 3.344 9.24V9.936C3.344 10.672 3.568 11.264 4.016 11.712C4.464 12.16 5.168 12.384 6.128 12.384ZM25.2706 18C24.5186 18 23.9826 17.808 23.6626 17.424C23.3426 17.04 23.1426 16.56 23.0626 15.984H22.9426C22.6706 16.704 22.2306 17.272 21.6226 17.688C21.0306 18.088 20.2306 18.288 19.2226 18.288C17.9266 18.288 16.8946 17.952 16.1266 17.28C15.3586 16.608 14.9746 15.688 14.9746 14.52C14.9746 13.368 15.3906 12.48 16.2226 11.856C17.0706 11.232 18.4306 10.92 20.3026 10.92H22.9426V9.696C22.9426 8.784 22.6866 8.104 22.1746 7.656C21.6626 7.192 20.9346 6.96 19.9906 6.96C19.1586 6.96 18.4786 7.128 17.9506 7.464C17.4226 7.784 16.9986 8.224 16.6786 8.784L15.3826 7.824C15.5426 7.504 15.7586 7.192 16.0306 6.888C16.3026 6.584 16.6386 6.32 17.0386 6.096C17.4386 5.856 17.8946 5.672 18.4066 5.544C18.9186 5.4 19.4866 5.328 20.1106 5.328C21.5666 5.328 22.7186 5.696 23.5666 6.432C24.4306 7.168 24.8626 8.192 24.8626 9.504V16.32H26.5906V18H25.2706ZM19.5586 16.68C20.0546 16.68 20.5026 16.624 20.9026 16.512C21.3186 16.384 21.6786 16.224 21.9826 16.032C22.2866 15.824 22.5186 15.584 22.6786 15.312C22.8546 15.024 22.9426 14.72 22.9426 14.4V12.36H20.3026C19.1506 12.36 18.3106 12.52 17.7826 12.84C17.2546 13.16 16.9906 13.624 16.9906 14.232V14.736C16.9906 15.376 17.2146 15.864 17.6626 16.2C18.1266 16.52 18.7586 16.68 19.5586 16.68ZM35.5813 18C34.6373 18 33.9413 17.736 33.4933 17.208C33.0613 16.68 32.8453 16 32.8453 15.168V7.248H28.7173V5.616H31.7893C32.2053 5.616 32.4933 5.536 32.6533 5.376C32.8293 5.2 32.9173 4.904 32.9173 4.488V1.248H34.7653V5.616H40.4053V7.248H34.7653V16.368H40.4053V18H35.5813ZM49.9719 18C49.0279 18 48.3319 17.736 47.8839 17.208C47.4519 16.68 47.2359 16 47.2359 15.168V7.248H43.1079V5.616H46.1799C46.5959 5.616 46.8839 5.536 47.0439 5.376C47.2199 5.2 47.3079 4.904 47.3079 4.488V1.248H49.1559V5.616H54.7959V7.248H49.1559V16.368H54.7959V18H49.9719ZM66.6905 15.984H66.5945C66.4665 16.288 66.3065 16.584 66.1145 16.872C65.9225 17.144 65.6825 17.384 65.3945 17.592C65.1225 17.8 64.7945 17.968 64.4105 18.096C64.0265 18.224 63.5785 18.288 63.0665 18.288C61.7705 18.288 60.7305 17.88 59.9465 17.064C59.1625 16.232 58.7705 15.064 58.7705 13.56V5.616H60.6905V13.224C60.6905 14.36 60.9385 15.208 61.4345 15.768C61.9305 16.312 62.6585 16.584 63.6185 16.584C64.0025 16.584 64.3785 16.536 64.7465 16.44C65.1145 16.344 65.4425 16.2 65.7305 16.008C66.0185 15.816 66.2505 15.576 66.4265 15.288C66.6025 14.984 66.6905 14.624 66.6905 14.208V5.616H68.6105V18H66.6905V15.984ZM78.2971 18.288C77.0011 18.288 75.8811 18.072 74.9371 17.64C74.0091 17.192 73.2171 16.6 72.5611 15.864L73.8571 14.736C74.4491 15.36 75.0971 15.84 75.8011 16.176C76.5051 16.512 77.3531 16.68 78.3451 16.68C79.3051 16.68 80.0891 16.512 80.6971 16.176C81.3211 15.824 81.6331 15.28 81.6331 14.544C81.6331 14.224 81.5691 13.96 81.4411 13.752C81.3291 13.528 81.1691 13.352 80.9611 13.224C80.7531 13.096 80.5211 13 80.2651 12.936C80.0091 12.856 79.7371 12.792 79.4491 12.744L77.5051 12.456C77.0731 12.392 76.6011 12.304 76.0891 12.192C75.5931 12.08 75.1371 11.904 74.7211 11.664C74.3051 11.408 73.9531 11.072 73.6651 10.656C73.3931 10.24 73.2571 9.696 73.2571 9.024C73.2571 8.4 73.3771 7.864 73.6171 7.416C73.8731 6.952 74.2251 6.568 74.6731 6.264C75.1211 5.944 75.6491 5.712 76.2571 5.568C76.8651 5.408 77.5291 5.328 78.2491 5.328C79.3691 5.328 80.3371 5.504 81.1531 5.856C81.9851 6.208 82.6971 6.696 83.2891 7.32L82.0411 8.496C81.8971 8.32 81.7131 8.144 81.4891 7.968C81.2811 7.776 81.0171 7.608 80.6971 7.464C80.3931 7.304 80.0331 7.176 79.6171 7.08C79.2011 6.984 78.7211 6.936 78.1771 6.936C77.2011 6.936 76.4491 7.104 75.9211 7.44C75.4091 7.776 75.1531 8.264 75.1531 8.904C75.1531 9.224 75.2091 9.496 75.3211 9.72C75.4491 9.928 75.6171 10.096 75.8251 10.224C76.0331 10.352 76.2651 10.456 76.5211 10.536C76.7931 10.6 77.0651 10.656 77.3371 10.704L79.2811 10.992C79.7291 11.056 80.2011 11.144 80.6971 11.256C81.1931 11.368 81.6491 11.552 82.0651 11.808C82.4811 12.048 82.8251 12.376 83.0971 12.792C83.3851 13.208 83.5291 13.752 83.5291 14.424C83.5291 15.656 83.0491 16.608 82.0891 17.28C81.1451 17.952 79.8811 18.288 78.2971 18.288ZM92.5438 18.288C91.6798 18.288 90.8958 18.136 90.1918 17.832C89.5038 17.528 88.9118 17.096 88.4158 16.536C87.9358 15.96 87.5678 15.28 87.3118 14.496C87.0558 13.696 86.9277 12.8 86.9277 11.808C86.9277 10.832 87.0558 9.944 87.3118 9.144C87.5678 8.344 87.9358 7.664 88.4158 7.104C88.9118 6.528 89.5038 6.088 90.1918 5.784C90.8958 5.48 91.6798 5.328 92.5438 5.328C93.4078 5.328 94.1838 5.48 94.8718 5.784C95.5758 6.088 96.1678 6.528 96.6478 7.104C97.1438 7.664 97.5198 8.344 97.7758 9.144C98.0318 9.944 98.1598 10.832 98.1598 11.808C98.1598 12.8 98.0318 13.696 97.7758 14.496C97.5198 15.28 97.1438 15.96 96.6478 16.536C96.1678 17.096 95.5758 17.528 94.8718 17.832C94.1838 18.136 93.4078 18.288 92.5438 18.288ZM92.5438 16.632C93.6158 16.632 94.4798 16.312 95.1358 15.672C95.7918 15.032 96.1198 14.04 96.1198 12.696V10.92C96.1198 9.576 95.7918 8.584 95.1358 7.944C94.4798 7.304 93.6158 6.984 92.5438 6.984C91.4718 6.984 90.6078 7.304 89.9518 7.944C89.2958 8.584 88.9678 9.576 88.9678 10.92V12.696C88.9678 14.04 89.2958 15.032 89.9518 15.672C90.6078 16.312 91.4718 16.632 92.5438 16.632ZM106.934 18.216C106.278 18.216 105.814 18.08 105.542 17.808C105.286 17.536 105.158 17.192 105.158 16.776V16.344C105.158 15.928 105.286 15.584 105.542 15.312C105.814 15.04 106.278 14.904 106.934 14.904C107.59 14.904 108.046 15.04 108.302 15.312C108.574 15.584 108.71 15.928 108.71 16.344V16.776C108.71 17.192 108.574 17.536 108.302 17.808C108.046 18.08 107.59 18.216 106.934 18.216ZM124.325 15.984H124.229C123.429 17.52 122.157 18.288 120.413 18.288C118.893 18.288 117.701 17.72 116.837 16.584C115.989 15.448 115.565 13.856 115.565 11.808C115.565 9.76 115.989 8.168 116.837 7.032C117.701 5.896 118.893 5.328 120.413 5.328C122.157 5.328 123.429 6.096 124.229 7.632H124.325V0.24H126.245V18H124.325V15.984ZM121.157 16.584C121.589 16.584 121.997 16.528 122.381 16.416C122.765 16.304 123.101 16.144 123.389 15.936C123.677 15.712 123.901 15.448 124.061 15.144C124.237 14.824 124.325 14.456 124.325 14.04V9.576C124.325 9.16 124.237 8.8 124.061 8.496C123.901 8.176 123.677 7.912 123.389 7.704C123.101 7.48 122.765 7.312 122.381 7.2C121.997 7.088 121.589 7.032 121.157 7.032C120.037 7.032 119.165 7.376 118.541 8.064C117.933 8.736 117.629 9.632 117.629 10.752V12.864C117.629 13.984 117.933 14.888 118.541 15.576C119.165 16.248 120.037 16.584 121.157 16.584ZM135.932 18.288C135.036 18.288 134.228 18.136 133.508 17.832C132.804 17.528 132.196 17.096 131.684 16.536C131.188 15.96 130.804 15.28 130.532 14.496C130.26 13.696 130.124 12.808 130.124 11.832C130.124 10.84 130.26 9.944 130.532 9.144C130.82 8.344 131.212 7.664 131.708 7.104C132.204 6.528 132.796 6.088 133.484 5.784C134.188 5.48 134.964 5.328 135.812 5.328C136.644 5.328 137.396 5.48 138.068 5.784C138.756 6.088 139.34 6.512 139.82 7.056C140.3 7.584 140.668 8.216 140.924 8.952C141.18 9.688 141.308 10.496 141.308 11.376V12.288H132.14V12.864C132.14 13.408 132.228 13.912 132.404 14.376C132.58 14.84 132.828 15.24 133.148 15.576C133.484 15.912 133.884 16.176 134.348 16.368C134.828 16.544 135.356 16.632 135.932 16.632C136.764 16.632 137.484 16.44 138.092 16.056C138.7 15.672 139.164 15.144 139.484 14.472L140.9 15.432C140.532 16.264 139.916 16.952 139.052 17.496C138.204 18.024 137.164 18.288 135.932 18.288ZM135.812 6.912C135.284 6.912 134.796 7.008 134.348 7.2C133.9 7.392 133.508 7.656 133.172 7.992C132.852 8.328 132.596 8.728 132.404 9.192C132.228 9.64 132.14 10.136 132.14 10.68V10.848H139.244V10.584C139.244 10.04 139.156 9.544 138.98 9.096C138.82 8.648 138.588 8.264 138.284 7.944C137.996 7.608 137.636 7.352 137.204 7.176C136.788 7 136.324 6.912 135.812 6.912ZM148.882 18L144.442 5.616H146.386L148.162 10.8L150.082 16.392H150.178L152.098 10.8L153.874 5.616H155.77L151.33 18H148.882Z" fill="white"/>
</svg>